<svg width="256" height="256" viewBox="0 0 256 256" fill="none" xmlns="http://www.w3.org/2000/svg">
  <rect width="256" height="256" rx="64" fill="#F4F7F4"/>
  <path d="M92 44H164V66L148 94V118.5L194 191.5C201.3 203.1 192.9 218 179.2 218H76.8C63.1 218 54.7 203.1 62 191.5L108 118.5V94L92 66V44Z" fill="url(#paint0_linear_1_2)"/>
  <path d="M92 44H164V66H92V44Z" fill="#1F5B34"/>
  <path d="M128 104C114.2 104 102.4 111.9 97.3 123.4L79 156H177L158.7 123.4C153.6 111.9 141.8 104 128 104Z" fill="rgba(255,255,255,0.24)"/>
  <circle cx="102" cy="138" r="9" fill="#F7FBF7"/>
  <circle cx="128" cy="124" r="7" fill="#F7FBF7"/>
  <circle cx="150" cy="145" r="11" fill="#F7FBF7"/>
  <path d="M81 172H175" stroke="#F7FBF7" stroke-width="10" stroke-linecap="round"/>
  <defs>
    <linearGradient id="paint0_linear_1_2" x1="57" y1="58" x2="207" y2="210" gradientUnits="userSpaceOnUse">
      <stop stop-color="#2FB34A"/>
      <stop offset="0.55" stop-color="#11804B"/>
      <stop offset="1" stop-color="#C5441C"/>
    </linearGradient>
  </defs>
</svg>
